<svg id="bell" xmlns="http://www.w3.org/2000/svg" width="21.818" height="26.182" viewBox="0 0 21.818 26.182">
  <g id="Group_4419" data-name="Group 4419" transform="translate(0)">
    <g id="Group_4418" data-name="Group 4418" transform="translate(0)">
      <path id="Path_3310" data-name="Path 3310" d="M64.416,22.084l-1.873-3.122A9.274,9.274,0,0,1,61.22,14.19V11.455A7.646,7.646,0,0,0,55.766,4.14V2.182a2.182,2.182,0,0,0-4.364,0V4.14a7.646,7.646,0,0,0-5.455,7.315V14.19a9.28,9.28,0,0,1-1.321,4.771l-1.873,3.122a.546.546,0,0,0,.467.827H63.948a.545.545,0,0,0,.468-.826Z" transform="translate(-42.675)" fill="#173051"/>
    </g>
  </g>
  <g id="Group_4421" data-name="Group 4421" transform="translate(7.473 24.001)">
    <g id="Group_4420" data-name="Group 4420" transform="translate(0)">
      <path id="Path_3311" data-name="Path 3311" d="M188.815,469.333a3.8,3.8,0,0,0,6.871,0Z" transform="translate(-188.815 -469.333)" fill="#173051"/>
    </g>
  </g>
</svg>
