<svg xmlns="http://www.w3.org/2000/svg" width="13.277" height="13.276" viewBox="0 0 13.277 13.276">
  <g id="close_1_" data-name="close (1)" transform="translate(0 -0.016)">
    <g id="Group_4134" data-name="Group 4134" transform="translate(0 0.016)">
      <path id="Path_2827" data-name="Path 2827" d="M8.1,6.654,13.065,1.69a.727.727,0,0,0,0-1.027L12.63.228a.728.728,0,0,0-1.027,0L6.639,5.192,1.674.228a.728.728,0,0,0-1.027,0L.212.663a.727.727,0,0,0,0,1.027L5.177,6.654.212,11.618a.728.728,0,0,0,0,1.027l.435.435a.728.728,0,0,0,1.027,0L6.639,8.116,11.6,13.08a.72.72,0,0,0,.513.212h0a.721.721,0,0,0,.513-.212l.435-.435a.728.728,0,0,0,0-1.027Z" transform="translate(0 -0.016)" fill="#3f3d56"/>
    </g>
  </g>
</svg>
