<svg xmlns="http://www.w3.org/2000/svg" width="15.809" height="15.808" viewBox="0 0 15.809 15.808">
  <g id="cross" transform="translate(0 0)">
    <g id="Group_4134" data-name="Group 4134" transform="translate(0 0)">
      <path id="Path_2827" data-name="Path 2827" d="M9.646,7.92l5.911-5.911a.866.866,0,0,0,0-1.223L15.038.268a.867.867,0,0,0-1.223,0L7.9,6.179,1.994.268a.866.866,0,0,0-1.223,0L.253.786a.865.865,0,0,0,0,1.223L6.164,7.92.253,13.831a.867.867,0,0,0,0,1.223l.518.518a.866.866,0,0,0,1.223,0L7.9,9.661l5.911,5.911a.858.858,0,0,0,.611.252h0a.858.858,0,0,0,.611-.252l.518-.518a.867.867,0,0,0,0-1.223Z" transform="translate(0 -0.016)" fill="#173051"/>
    </g>
  </g>
</svg>
