<svg xmlns="http://www.w3.org/2000/svg" width="24.693" height="24.693" viewBox="0 0 24.693 24.693">
  <path id="info" d="M12.346,0A12.347,12.347,0,1,0,24.693,12.347,12.361,12.361,0,0,0,12.346,0Zm.8,19.672c-.587.1-1.754.342-2.346.391a1.445,1.445,0,0,1-1.264-.658,1.543,1.543,0,0,1-.187-1.413l2.334-6.417H9.26a2.9,2.9,0,0,1,2.284-2.7,8.934,8.934,0,0,1,2.346-.389,1.861,1.861,0,0,1,1.264.658,1.543,1.543,0,0,1,.187,1.413l-2.334,6.417h2.426a2.732,2.732,0,0,1-2.283,2.7Zm.74-11.955a1.543,1.543,0,1,1,1.543-1.543A1.543,1.543,0,0,1,13.89,7.717Z" fill="#173051"/>
</svg>
