<svg xmlns="http://www.w3.org/2000/svg" width="19.401" height="24.693" viewBox="0 0 19.401 24.693">
  <g id="lockk" transform="translate(0 0)">
    <g id="Group_4422" data-name="Group 4422" transform="translate(0 0)">
      <path id="Path_3312" data-name="Path 3312" d="M69.72,8.819h-.882V7.937a7.937,7.937,0,1,0-15.874,0v.882h-.882A.882.882,0,0,0,51.2,9.7v14.11a.882.882,0,0,0,.882.882H69.72a.882.882,0,0,0,.882-.882V9.7A.882.882,0,0,0,69.72,8.819ZM63.4,16.745a2.645,2.645,0,0,1-1.612,1.612v1.926a.882.882,0,1,1-1.764,0V18.358A2.646,2.646,0,1,1,63.4,16.745Zm3.679-7.926H54.728V7.937a6.173,6.173,0,1,1,12.346,0Z" transform="translate(-51.2)" fill="#173051"/>
    </g>
  </g>
</svg>
