<svg xmlns="http://www.w3.org/2000/svg" width="27.474" height="18.779" viewBox="0 0 27.474 18.779">
  <g id="multiply" transform="translate(0.543 0.6)">
    <g id="close_1_" data-name="close (1)" transform="translate(11.143 4.126)">
      <g id="Group_4134" data-name="Group 4134" transform="translate(0 0)">
        <path id="Path_2827" data-name="Path 2827" d="M5.683,4.673,9.165,1.19a.51.51,0,0,0,0-.72L8.86.165a.511.511,0,0,0-.72,0L4.657,3.647,1.175.165a.51.51,0,0,0-.72,0L.149.47a.51.51,0,0,0,0,.72L3.631,4.673.149,8.155a.511.511,0,0,0,0,.72l.305.305a.51.51,0,0,0,.72,0L4.657,5.7,8.139,9.18a.505.505,0,0,0,.36.149h0a.505.505,0,0,0,.36-.149l.305-.305a.511.511,0,0,0,0-.72Z" transform="translate(0 -0.016)" fill="#173051"/>
      </g>
    </g>
    <path id="path0" d="M7.506,66.38c-.1.067-5.8,6.137-7.484,7.978-.57.623-.588.809-.124,1.3.165.174,1.919,2.053,3.9,4.174s3.652,3.9,3.717,3.941c.148.1,15.732.129,16.229.027a2.818,2.818,0,0,0,2.064-1.943c.125-.424.125-13.139,0-13.563a2.8,2.8,0,0,0-2.064-1.943c-.5-.1-16.076-.074-16.236.029M23.864,67.63a1.577,1.577,0,0,1,.819.946c.115.381.115,12.617,0,13a1.577,1.577,0,0,1-.819.946l-.352.18-7.714.013-7.714.013L4.558,78.951C2.619,76.874,1.02,75.143,1,75.1s1.335-1.53,3.525-3.876l3.553-3.806,7.714.013,7.714.013.352.18" transform="translate(0.43 -66.286)" fill="#173051" stroke="#173051" stroke-width="1.2" fill-rule="evenodd"/>
  </g>
</svg>
