<svg xmlns="http://www.w3.org/2000/svg" width="21.574" height="21.575" viewBox="0 0 21.574 21.575">
  <g id="plus" transform="translate(10.787) rotate(45)">
    <g id="Group_4134" data-name="Group 4134" transform="translate(0 0)">
      <path id="Path_2827" data-name="Path 2827" d="M9.308,7.627l5.7-5.7a.836.836,0,0,0,0-1.18l-.5-.5a.836.836,0,0,0-1.18,0l-5.7,5.7-5.7-5.7a.836.836,0,0,0-1.18,0l-.5.5a.835.835,0,0,0,0,1.18l5.7,5.7-5.7,5.7a.837.837,0,0,0,0,1.18l.5.5a.836.836,0,0,0,1.18,0l5.7-5.7,5.7,5.7a.828.828,0,0,0,.59.244h0a.828.828,0,0,0,.59-.244l.5-.5a.837.837,0,0,0,0-1.18Z" fill="#173051"/>
    </g>
  </g>
</svg>
