<svg id="subject" xmlns="http://www.w3.org/2000/svg" width="25.147" height="25.147" viewBox="0 0 25.147 25.147">
  <g id="Group_4427" data-name="Group 4427" transform="translate(5.908 6.729)">
    <g id="Group_4426" data-name="Group 4426">
      <path id="Path_3317" data-name="Path 3317" d="M121.2,137h-.315l-.589,2.947h1.494Z" transform="translate(-120.293 -137)" fill="#173051"/>
    </g>
  </g>
  <g id="Group_4429" data-name="Group 4429" transform="translate(18.731 12.623)">
    <g id="Group_4428" data-name="Group 4428">
      <path id="Path_3318" data-name="Path 3318" d="M381.374,257a7.7,7.7,0,0,0,1.21,2.135A7.775,7.775,0,0,0,383.842,257Z" transform="translate(-381.374 -257)" fill="#173051"/>
    </g>
  </g>
  <g id="Group_4431" data-name="Group 4431" transform="translate(11.919 4.47)">
    <g id="Group_4430" data-name="Group 4430">
      <path id="Path_3319" data-name="Path 3319" d="M253.681,91h-9.149l1.908,15.308a2.287,2.287,0,0,1-.546,1.677l-3.231,3.692h11.018a2.213,2.213,0,0,0,2.21-2.21V93.259A2.255,2.255,0,0,0,253.681,91Zm0,8.153h-.2a9.347,9.347,0,0,1-1.775,3.227c.541.495,1.12.9,1.7,1.355a.737.737,0,0,1-.921,1.15c-.625-.493-1.212-.907-1.8-1.445-.587.538-1.125.952-1.75,1.445a.737.737,0,0,1-.921-1.15c.575-.455,1.105-.861,1.646-1.355a9.3,9.3,0,0,1-1.726-3.227h-.2a.737.737,0,0,1,0-1.473h2.21v-.737a.737.737,0,1,1,1.473,0v.737h2.259a.737.737,0,0,1,0,1.473Z" transform="translate(-242.663 -91)" fill="#173051"/>
    </g>
  </g>
  <g id="Group_4433" data-name="Group 4433">
    <g id="Group_4432" data-name="Group 4432">
      <path id="Path_3320" data-name="Path 3320" d="M11.992,1.936A2.213,2.213,0,0,0,9.8,0H2.21A2.213,2.213,0,0,0,0,2.21V18.517a2.213,2.213,0,0,0,2.21,2.21H13.829c.215-.246.4-.4.4-.72C14.233,19.926,12,2.016,11.992,1.936ZM9.035,14.082a.737.737,0,0,1-.867-.578L7.7,11.149H5.614L5.143,13.5A.737.737,0,1,1,3.7,13.215L5.172,5.848a.737.737,0,0,1,.722-.592H7.416a.737.737,0,0,1,.722.592l1.473,7.367A.737.737,0,0,1,9.035,14.082Z" fill="#173051"/>
    </g>
  </g>
  <g id="Group_4435" data-name="Group 4435" transform="translate(8.608 22.2)">
    <g id="Group_4434" data-name="Group 4434">
      <path id="Path_3321" data-name="Path 3321" d="M175.261,452l.126,1.011a2.228,2.228,0,0,0,1.274,1.712L179.135,452Z" transform="translate(-175.261 -452)" fill="#173051"/>
    </g>
  </g>
</svg>
